<?xml version="1.0" encoding="utf-8"?>
<!-- Generator: Adobe Illustrator 27.5.0, SVG Export Plug-In . SVG Version: 6.00 Build 0)  -->
<svg version="1.1" id="Ñëîé_1" xmlns="http://www.w3.org/2000/svg" xmlns:xlink="http://www.w3.org/1999/xlink" x="0px" y="0px"
	 viewBox="0 0 600 450" style="enable-background:new 0 0 600 450;" xml:space="preserve">
<g>
	<g>
		<linearGradient id="SVGID_1_" gradientUnits="userSpaceOnUse" x1="92.8382" y1="286.9404" x2="524.3341" y2="286.9404">
			<stop  offset="0" style="stop-color:#59BDEF"/>
			<stop  offset="1" style="stop-color:#7BDAFF"/>
		</linearGradient>
		<path style="opacity:0.3;fill:url(#SVGID_1_);" d="M519.653,335.639l-126.692,73.175c-5.659,3.267-14.22,3.622-19.121,0.793
			L96.147,249.281c-4.901-2.83-4.286-7.772,1.373-11.04l126.692-73.175c5.659-3.267,14.22-3.622,19.121-0.793L521.025,324.6
			C525.927,327.43,525.312,332.372,519.653,335.639z"/>
		
			<linearGradient id="SVGID_00000106145701164251999690000001832412806670348702_" gradientUnits="userSpaceOnUse" x1="108.9823" y1="247.0662" x2="522.7394" y2="247.0662">
			<stop  offset="0" style="stop-color:#3A9BD5"/>
			<stop  offset="0.3002" style="stop-color:#3796D1"/>
			<stop  offset="0.6734" style="stop-color:#2F86C7"/>
			<stop  offset="1" style="stop-color:#2573BA"/>
		</linearGradient>
		<path style="fill:url(#SVGID_00000106145701164251999690000001832412806670348702_);" d="M524.334,276.111l-26.101-4.544
			L243.332,124.4c-4.901-2.83-13.462-2.475-19.121,0.793l-118.079,68.202l-13.292-2.314l-0.001,13.503l0.012,0.002
			c-0.01,1.806,1.065,3.533,3.296,4.821L373.84,369.733c4.901,2.829,13.462,2.475,19.121-0.793l126.692-73.175
			c3.143-1.814,4.723-4.145,4.674-6.344l0.008,0.001V276.111z"/>
		
			<linearGradient id="SVGID_00000012448537096805665560000015060993421134686599_" gradientUnits="userSpaceOnUse" x1="1784.803" y1="-245.9473" x2="2025.9402" y2="-118.8919" gradientTransform="matrix(1 -0.5774 0.866 0.5 -1439.6554 1425.2062)">
			<stop  offset="0" style="stop-color:#59BDEF"/>
			<stop  offset="1" style="stop-color:#7BDAFF"/>
		</linearGradient>
		<path style="fill:url(#SVGID_00000012448537096805665560000015060993421134686599_);" d="M519.653,282.352l-126.692,73.175
			c-5.659,3.267-14.22,3.622-19.121,0.793L96.147,195.993c-4.901-2.83-4.286-7.772,1.373-11.039l126.692-73.175
			c5.659-3.267,14.22-3.622,19.121-0.793l277.693,160.326C525.927,274.142,525.312,279.084,519.653,282.352z"/>
		<path style="fill:#0063AD;" d="M179.854,144.945l-19.551,11.288c-0.849,0.49-2.133,0.543-2.868,0.119l-0.199-0.115
			c-0.735-0.424-0.643-1.166,0.206-1.656l19.551-11.288c0.849-0.49,2.133-0.543,2.868-0.119l0.199,0.115
			C180.795,143.714,180.703,144.455,179.854,144.945z"/>
	</g>
	<g style="opacity:0.5;">
		<defs>
			<path id="SVGID_00000124121952455463684180000003748040308444445841_" style="opacity:0.5;" d="M519.653,282.352l-126.692,73.175
				c-5.659,3.267-14.22,3.622-19.121,0.793L96.147,195.993c-4.901-2.83-4.286-7.772,1.373-11.039l126.692-73.175
				c5.659-3.267,14.22-3.622,19.121-0.793l277.693,160.326C525.927,274.142,525.312,279.084,519.653,282.352z"/>
		</defs>
		<clipPath id="SVGID_00000053526568704527084110000002349953907494446752_">
			<use xlink:href="#SVGID_00000124121952455463684180000003748040308444445841_"  style="overflow:visible;"/>
		</clipPath>
		<g style="clip-path:url(#SVGID_00000053526568704527084110000002349953907494446752_);">
			<g>
				<path style="fill:#FD7207;" d="M234.356,275.131c-4.23,4.77-7.432,9.56-9.689,14.264l-14.261-9.686l11.024,32.76
					c0.378,1.566,0.893,3.089,1.536,4.566l0.019,0.056l0.011,0.007c4.57,10.425,15.697,18.483,32.662,21.956
					c1.202,0.246,2.42,0.463,3.649,0.657l17.537-21.809c-9.71-17.868-23.294-33.085-37.66-47.768
					C237.487,271.756,235.872,273.421,234.356,275.131z"/>
				<path style="fill:#E82F00;" d="M345.077,238.239c-10.428-2.135-21.929-2.301-33.613-0.808l-6.119-5.499l-36.304,4.11
					l-11.734,20.316c-6.693,4.087-12.823,8.71-18.124,13.777c14.366,14.682,27.95,29.9,37.66,47.768l10.684-13.286
					c-0.384-0.061-0.765-0.129-1.141-0.205c-11.401-2.334-14.384-11.285-6.662-19.991c7.722-8.706,23.224-13.871,34.625-11.537
					c3.846,0.787,6.729,2.329,8.571,4.359l49.565-25.064C366.594,245.688,357.374,240.757,345.077,238.239z"/>
				
					<linearGradient id="SVGID_00000016790137938757475010000003401082798709940376_" gradientUnits="userSpaceOnUse" x1="1069.1587" y1="-723.2937" x2="1231.6339" y2="-723.2937" gradientTransform="matrix(0.9487 -0.3161 0.3161 0.9487 -577.0646 1298.4808)">
					<stop  offset="0.4032" style="stop-color:#FC8B04"/>
					<stop  offset="0.5099" style="stop-color:#FC7904"/>
					<stop  offset="0.6558" style="stop-color:#FD6805"/>
					<stop  offset="0.813" style="stop-color:#FD5D05"/>
					<stop  offset="1" style="stop-color:#FD5A05"/>
				</linearGradient>
				<path style="fill:url(#SVGID_00000016790137938757475010000003401082798709940376_);" d="M275.989,269.991
					c-0.384-0.061-0.765-0.128-1.141-0.206c-11.401-2.334-14.383-11.284-6.662-19.991c7.722-8.706,23.224-13.871,34.625-11.537
					c3.846,0.787,6.729,2.329,8.571,4.359l49.565-25.064c-5.891-6.49-15.111-11.422-27.409-13.939
					c-36.457-7.465-86.028,9.053-110.721,36.892c-24.692,27.84-15.155,56.459,21.302,63.924c1.202,0.246,2.419,0.463,3.649,0.657
					L275.989,269.991z"/>
				<polygon style="fill:#DA1E00;" points="287.526,304.616 275.989,269.991 247.769,305.086 259.306,339.712 				"/>
				<polygon style="fill:#DA1E00;" points="322.92,277.242 311.383,242.617 360.948,217.553 372.485,252.178 				"/>
			</g>
			<g>
				<path style="fill:#DA1E00;" d="M377.395,227.706c0,0-14.486,29.935-14.851,30.209c-0.15,0.113,0.628,2.546,1.594,5.366
					l-30.385,15.365c3.62,3.987,3.208,9.862-1.91,15.632c-2.186,2.465-4.997,4.646-8.162,6.453l27.431,23.471
					c10.118-5.78,19.107-12.752,26.099-20.635c12.089-13.63,15.943-27.436,12.476-38.865l0.033-0.011L377.395,227.706z"/>
				<polygon style="fill:#DB5126;" points="312.143,266.105 323.681,300.73 351.112,324.202 339.574,289.576 				"/>
				
					<linearGradient id="SVGID_00000116219358685663143130000001952072714306733215_" gradientUnits="userSpaceOnUse" x1="1169.9832" y1="-695.8411" x2="1244.0292" y2="-695.8411" gradientTransform="matrix(0.9487 -0.3161 0.3161 0.9487 -577.0646 1298.4808)">
					<stop  offset="0.4032" style="stop-color:#FC8B04"/>
					<stop  offset="0.5099" style="stop-color:#FC7904"/>
					<stop  offset="0.6558" style="stop-color:#FD6805"/>
					<stop  offset="0.813" style="stop-color:#FD5D05"/>
					<stop  offset="1" style="stop-color:#FD5A05"/>
				</linearGradient>
				<path style="fill:url(#SVGID_00000116219358685663143130000001952072714306733215_);" d="M339.574,289.576
					c10.118-5.78,19.107-12.752,26.099-20.635c16.363-18.449,17.681-37.234,6.107-49.985l-49.565,25.064
					c3.619,3.988,3.207,9.862-1.91,15.632c-2.186,2.465-4.997,4.646-8.161,6.453L339.574,289.576z"/>
			</g>
			
				<linearGradient id="SVGID_00000093172385620878315230000002995730584328453808_" gradientUnits="userSpaceOnUse" x1="1090.3846" y1="-650.8505" x2="1200.5471" y2="-650.8505" gradientTransform="matrix(0.9487 -0.3161 0.3161 0.9487 -577.0646 1298.4808)">
				<stop  offset="0.3584" style="stop-color:#FD5A05"/>
				<stop  offset="0.3797" style="stop-color:#FA5505"/>
				<stop  offset="0.5167" style="stop-color:#EC3D03"/>
				<stop  offset="0.6609" style="stop-color:#E22C01"/>
				<stop  offset="0.8158" style="stop-color:#DC2100"/>
				<stop  offset="1" style="stop-color:#DA1E00"/>
			</linearGradient>
			<path style="fill:url(#SVGID_00000093172385620878315230000002995730584328453808_);" d="M250.716,311.008l11.538,34.626
				c25.495,4.033,56.534-2.954,80.973-16.914l-11.537-34.625L250.716,311.008z"/>
			
				<linearGradient id="SVGID_00000089572111018131239560000007100918617758766223_" gradientUnits="userSpaceOnUse" x1="1097.509" y1="-681.2876" x2="1179.6788" y2="-681.2876" gradientTransform="matrix(0.9487 -0.3161 0.3161 0.9487 -577.0646 1298.4808)">
				<stop  offset="0.4032" style="stop-color:#FC8B04"/>
				<stop  offset="0.5099" style="stop-color:#FC7904"/>
				<stop  offset="0.6558" style="stop-color:#FD6805"/>
				<stop  offset="0.813" style="stop-color:#FD5D05"/>
				<stop  offset="1" style="stop-color:#FD5A05"/>
			</linearGradient>
			<path style="fill:url(#SVGID_00000089572111018131239560000007100918617758766223_);" d="M331.689,294.094l-27.431-23.471
				c-7.643,4.366-17.349,6.551-25.322,5.289l-28.22,35.096C276.211,315.041,307.25,308.054,331.689,294.094z"/>
			<g>
				<path style="fill:#FFFFFF;" d="M310.899,241.167c-1.842-2.03-4.726-3.572-8.571-4.359c-11.401-2.335-26.903,2.831-34.625,11.537
					c-4.119,4.644-5.165,9.348-3.539,13.09c-0.825-3.471,0.419-7.578,4.022-11.639c7.722-8.706,23.224-13.871,34.625-11.537
					c3.846,0.787,6.729,2.329,8.571,4.359l49.565-25.064c-0.351-0.387-0.753-0.749-1.127-1.125L310.899,241.167z"/>
				<path style="fill:#FFFFFF;" d="M274.562,269.713l-27.277,33.923c-1.229-0.194-2.447-0.411-3.649-0.657
					c-17.848-3.654-29.224-12.386-33.311-23.607c3.609,11.917,15.184,21.247,33.794,25.057c1.202,0.246,2.42,0.463,3.649,0.657
					l28.22-35.096c-0.384-0.061-0.765-0.128-1.141-0.206C274.748,269.765,274.661,269.735,274.562,269.713z"/>
			</g>
			<g>
				<path style="fill:#FFFFFF;" d="M322.663,243.794l-0.448,0.227c0.697,0.768,1.241,1.608,1.634,2.501
					C323.615,245.557,323.217,244.643,322.663,243.794z"/>
				<path style="fill:#FFFFFF;" d="M365.19,267.491c-6.992,7.883-15.98,14.855-26.099,20.635l-26.244-22.456
					c-0.237,0.142-0.462,0.297-0.703,0.435l27.431,23.471c10.118-5.78,19.107-12.752,26.099-20.635
					c12.566-14.168,16.227-28.523,12.023-40.202C381.103,240.145,377.24,253.905,365.19,267.491z"/>
			</g>
			<path style="fill:#FFFFFF;" d="M251.726,309.751l-1.01,1.257c25.495,4.033,56.534-2.954,80.973-16.914l-1.224-1.047
				C306.614,306.464,276.68,313.255,251.726,309.751z"/>
		</g>
	</g>
	<path style="fill:#FFFFFF;" d="M519.653,280.625L392.961,353.8c-5.659,3.267-14.22,3.622-19.121,0.793L96.147,194.266
		c-1.852-1.069-2.914-2.441-3.216-3.909c-0.389,2.095,0.651,4.155,3.216,5.636L373.84,356.319c4.901,2.83,13.462,2.475,19.121-0.793
		l126.692-73.175c3.521-2.033,5.086-4.713,4.589-7.131C523.887,277.13,522.35,279.067,519.653,280.625z"/>
</g>
<g>
	<polygon style="fill:#FFFFFF;" points="230.288,143.572 227.82,144.997 221.973,141.622 224.441,140.196 	"/>
	<polygon style="fill:#FFFFFF;" points="234.835,140.947 232.367,142.372 226.52,138.996 228.989,137.571 	"/>
	<polygon style="fill:#FFFFFF;" points="239.382,138.321 236.914,139.747 231.067,136.371 233.536,134.946 	"/>
	<polygon style="fill:#FFFFFF;" points="243.929,135.696 241.461,137.121 235.614,133.746 238.083,132.321 	"/>
</g>
<g>
	<g>
		<path style="fill:#FD7207;" d="M277.211,115.99c-6.373-0.161-12.099,0.479-17.152,1.785l-1.785-17.146l-17.944,29.543
			c-0.954,1.298-1.786,2.673-2.501,4.117l-0.031,0.051l0.002,0.013c-5.026,10.213-4.015,23.914,4.262,39.124
			c0.586,1.077,1.206,2.148,1.849,3.213l27.978-0.647c7.404-18.94,10.285-39.134,12.252-59.581
			C281.81,116.209,279.496,116.048,277.211,115.99z"/>
		<path style="fill:#E82F00;" d="M376.778,176.872c-5.088-9.349-12.374-18.25-21.045-26.222l0.261-8.223l-26.54-25.109
			l-23.096,4.122c-7.439-2.484-14.924-4.191-22.215-4.979c-1.968,20.447-4.849,40.641-12.252,59.581l17.045-0.394
			c-0.201-0.333-0.395-0.668-0.578-1.005c-5.563-10.222-0.642-18.271,10.992-17.977c11.634,0.293,25.574,8.818,31.137,19.039
			c1.877,3.448,2.556,6.646,2.191,9.363l51.108,21.745C384.95,198.126,382.778,187.897,376.778,176.872z"/>
		
			<linearGradient id="SVGID_00000030488407501201728980000000232003199713571762_" gradientUnits="userSpaceOnUse" x1="-146.9244" y1="1162.0322" x2="15.5372" y2="1162.0322" gradientTransform="matrix(0.8532 0.5217 -0.5217 0.8532 992.82 -819.0037)">
			<stop  offset="0.4032" style="stop-color:#FC8B04"/>
			<stop  offset="0.5099" style="stop-color:#FC7904"/>
			<stop  offset="0.6558" style="stop-color:#FD6805"/>
			<stop  offset="0.813" style="stop-color:#FD5D05"/>
			<stop  offset="1" style="stop-color:#FD5A05"/>
		</linearGradient>
		<path style="fill:url(#SVGID_00000030488407501201728980000000232003199713571762_);" d="M307.974,144.51
			c-0.201-0.333-0.395-0.668-0.578-1.005c-5.563-10.222-0.642-18.271,10.992-17.977c11.634,0.293,25.574,8.818,31.137,19.04
			c1.877,3.448,2.556,6.646,2.191,9.363l51.108,21.745c1.165-8.687-1.006-18.915-7.006-29.941
			c-17.788-32.687-62.366-59.944-99.567-60.882c-37.201-0.938-52.937,24.8-35.148,57.486c0.586,1.077,1.206,2.148,1.849,3.213
			L307.974,144.51z"/>
		<polygon style="fill:#DA1E00;" points="288.935,175.648 307.974,144.51 262.952,145.552 243.912,176.689 		"/>
		<polygon style="fill:#DA1E00;" points="332.676,185.068 351.715,153.931 402.824,175.675 383.784,206.813 		"/>
	</g>
	<g>
		<path style="fill:#DA1E00;" d="M405.661,194.795c0,0-32.225,8.216-32.67,8.113c-0.183-0.042-1.542,2.122-3.076,4.677
			l-31.332-13.33c-0.716,5.337-5.473,8.808-13.183,8.614c-3.294-0.083-6.773-0.827-10.194-2.081l-0.267,36.101
			c10.94,4.012,22.065,6.391,32.598,6.656c18.213,0.459,31.253-5.493,37.757-15.509l0.03,0.018L405.661,194.795z"/>
		<polygon style="fill:#DB5126;" points="334.246,169.65 315.207,200.788 314.94,236.889 333.979,205.751 		"/>
		
			<linearGradient id="SVGID_00000011709383375711772370000008991967342364559749_" gradientUnits="userSpaceOnUse" x1="-46.1088" y1="1189.4835" x2="27.9312" y2="1189.4835" gradientTransform="matrix(0.8532 0.5217 -0.5217 0.8532 992.82 -819.0037)">
			<stop  offset="0.4032" style="stop-color:#FC8B04"/>
			<stop  offset="0.5099" style="stop-color:#FC7904"/>
			<stop  offset="0.6558" style="stop-color:#FD6805"/>
			<stop  offset="0.813" style="stop-color:#FD5D05"/>
			<stop  offset="1" style="stop-color:#FD5A05"/>
		</linearGradient>
		<path style="fill:url(#SVGID_00000011709383375711772370000008991967342364559749_);" d="M333.979,205.751
			c10.94,4.011,22.065,6.391,32.598,6.656c24.652,0.621,39.865-10.478,42.155-27.546l-51.108-21.744
			c-0.716,5.337-5.473,8.808-13.183,8.614c-3.294-0.083-6.773-0.827-10.194-2.081L333.979,205.751z"/>
	</g>
	
		<linearGradient id="SVGID_00000045598910503166289220000005186666341403529403_" gradientUnits="userSpaceOnUse" x1="-125.7007" y1="1234.4692" x2="-15.5482" y2="1234.4692" gradientTransform="matrix(0.8532 0.5217 -0.5217 0.8532 992.82 -819.0037)">
		<stop  offset="0.3584" style="stop-color:#FD5A05"/>
		<stop  offset="0.3797" style="stop-color:#FA5505"/>
		<stop  offset="0.5167" style="stop-color:#EC3D03"/>
		<stop  offset="0.6609" style="stop-color:#E22C01"/>
		<stop  offset="0.8158" style="stop-color:#DC2100"/>
		<stop  offset="1" style="stop-color:#DA1E00"/>
	</linearGradient>
	<path style="fill:url(#SVGID_00000045598910503166289220000005186666341403529403_);" d="M260.323,151.622l-19.039,31.138
		c13.348,22.093,38.695,41.323,65.119,51.012l19.039-31.137L260.323,151.622z"/>
	
		<linearGradient id="SVGID_00000146484037997212187060000012126541254441711032_" gradientUnits="userSpaceOnUse" x1="-118.577" y1="1204.035" x2="-36.4141" y2="1204.035" gradientTransform="matrix(0.8532 0.5217 -0.5217 0.8532 992.82 -819.0037)">
		<stop  offset="0.4032" style="stop-color:#FC8B04"/>
		<stop  offset="0.5099" style="stop-color:#FC7904"/>
		<stop  offset="0.6558" style="stop-color:#FD6805"/>
		<stop  offset="0.813" style="stop-color:#FD5D05"/>
		<stop  offset="1" style="stop-color:#FD5A05"/>
	</linearGradient>
	<path style="fill:url(#SVGID_00000146484037997212187060000012126541254441711032_);" d="M325.442,202.634l0.267-36.101
		c-8.264-3.03-16.19-9.044-20.364-15.953l-45.022,1.041C273.671,173.715,299.017,192.945,325.442,202.634z"/>
	<g>
		<path style="fill:#FFFFFF;" d="M352.513,152.626c0.365-2.717-0.314-5.915-2.191-9.363c-5.563-10.222-19.503-18.746-31.137-19.04
			c-6.206-0.157-10.476,2.076-12.289,5.73c2.123-2.868,6.064-4.563,11.492-4.426c11.633,0.293,25.574,8.818,31.137,19.039
			c1.877,3.448,2.556,6.646,2.191,9.363l51.108,21.745c0.069-0.518,0.088-1.058,0.133-1.587L352.513,152.626z"/>
		<path style="fill:#FFFFFF;" d="M307.267,143.241l-43.517,1.007c-0.643-1.065-1.263-2.136-1.849-3.213
			c-8.709-16.002-9.364-30.327-3.418-40.684c-6.786,10.44-6.459,25.303,2.621,41.988c0.586,1.077,1.206,2.148,1.849,3.213
			l45.022-1.041c-0.201-0.333-0.395-0.668-0.578-1.005C307.347,143.416,307.314,143.33,307.267,143.241z"/>
	</g>
	<g>
		<path style="fill:#FFFFFF;" d="M358.086,163.314l-0.462-0.197c-0.138,1.028-0.429,1.985-0.859,2.862
			C357.351,165.179,357.793,164.286,358.086,163.314z"/>
		<path style="fill:#FFFFFF;" d="M367.375,211.103c-10.534-0.266-21.658-2.645-32.598-6.656l0.256-34.539
			c-0.262-0.09-0.525-0.162-0.786-0.257l-0.267,36.101c10.94,4.012,22.065,6.391,32.598,6.656
			c18.932,0.477,32.267-5.975,38.487-16.717C398.539,205.647,385.529,211.561,367.375,211.103z"/>
	</g>
	<path style="fill:#FFFFFF;" d="M261.935,151.584l-1.612,0.037c13.348,22.093,38.694,41.323,65.119,51.012l0.012-1.611
		C299.823,191.434,275.338,172.922,261.935,151.584z"/>
</g>
<g>
	<polygon style="fill:#FFFFFF;" points="155.803,184.611 140.938,193.203 138.701,191.911 153.566,183.319 	"/>
	<polygon style="fill:#FFFFFF;" points="163.427,180.205 158.075,183.298 155.837,182.006 161.189,178.913 	"/>
	<polygon style="fill:#FFFFFF;" points="169.335,176.79 165.698,178.892 163.46,177.6 167.097,175.498 	"/>
	<polygon style="fill:#FFFFFF;" points="154.149,191.472 146.049,196.154 143.812,194.862 151.912,190.18 	"/>
	<polygon style="fill:#FFFFFF;" points="166.346,184.422 156.42,190.159 154.183,188.867 164.109,183.13 	"/>
	<polygon style="fill:#FFFFFF;" points="172.254,181.008 168.617,183.11 166.38,181.818 170.017,179.716 	"/>
	<polygon style="fill:#FFFFFF;" points="177.876,177.758 174.239,179.86 172.002,178.568 175.639,176.466 	"/>
	<polygon style="fill:#FFFFFF;" points="157.021,195.717 151.16,199.104 148.923,197.813 154.783,194.425 	"/>
	<polygon style="fill:#FFFFFF;" points="161.295,193.247 159.292,194.404 157.054,193.113 159.057,191.955 	"/>
	<polygon style="fill:#FFFFFF;" points="167.203,189.832 163.566,191.934 161.328,190.643 164.965,188.54 	"/>
	<polygon style="fill:#FFFFFF;" points="175.654,208.567 171.605,210.908 169.367,209.616 173.417,207.275 	"/>
	<polygon style="fill:#FFFFFF;" points="183.278,204.161 177.926,207.254 175.688,205.962 181.04,202.869 	"/>
	<polygon style="fill:#FFFFFF;" points="194.173,197.864 185.549,202.848 183.311,201.556 191.935,196.572 	"/>
	<polygon style="fill:#FFFFFF;" points="179.456,170.94 189.763,164.983 187.526,163.691 177.218,169.648 	"/>
	<polygon style="fill:#FFFFFF;" points="186.775,172.615 194.874,167.934 192.637,166.642 184.537,171.323 	"/>
	<polygon style="fill:#FFFFFF;" points="194.125,174.271 199.985,170.885 197.748,169.593 191.887,172.98 	"/>
	<polygon style="fill:#FFFFFF;" points="196.572,178.762 205.096,173.835 202.859,172.544 194.335,177.471 	"/>
	<polygon style="fill:#FFFFFF;" points="204.347,180.173 210.207,176.786 207.97,175.495 202.109,178.882 	"/>
	<polygon style="fill:#FFFFFF;" points="207.886,184.033 215.318,179.737 213.081,178.445 205.648,182.741 	"/>
	<polygon style="fill:#FFFFFF;" points="216.38,185.029 220.43,182.688 218.192,181.396 214.142,183.737 	"/>
	<polygon style="fill:#FFFFFF;" points="217.693,190.174 225.54,185.639 223.303,184.347 215.456,188.883 	"/>
	<polygon style="fill:#FFFFFF;" points="223.219,192.885 230.651,188.59 228.414,187.298 220.982,191.594 	"/>
	<g>
		<polygon style="fill:#FFFFFF;" points="177.902,189.553 156.271,202.055 154.034,200.764 175.665,188.261 		"/>
		<polygon style="fill:#FFFFFF;" points="185.526,185.147 180.173,188.24 177.936,186.948 183.288,183.855 		"/>
		<polygon style="fill:#FFFFFF;" points="167.243,201.619 161.383,205.006 159.145,203.714 165.005,200.327 		"/>
		<polygon style="fill:#FFFFFF;" points="180.996,193.669 169.514,200.306 167.277,199.014 178.759,192.378 		"/>
		<polygon style="fill:#FFFFFF;" points="186.904,190.255 183.268,192.357 181.03,191.065 184.667,188.963 		"/>
		<polygon style="fill:#FFFFFF;" points="178.484,201.027 166.493,207.957 164.256,206.665 176.247,199.735 		"/>
		<polygon style="fill:#FFFFFF;" points="189.427,194.702 180.755,199.714 178.518,198.422 187.189,193.41 		"/>
		<polygon style="fill:#FFFFFF;" points="197.558,190.002 191.698,193.389 189.46,192.098 195.321,188.71 		"/>
		<polygon style="fill:#FFFFFF;" points="189.121,206.689 176.716,213.859 174.478,212.567 186.884,205.397 		"/>
		<polygon style="fill:#FFFFFF;" points="203.016,198.658 191.392,205.376 189.155,204.084 200.779,197.366 		"/>
		<polygon style="fill:#FFFFFF;" points="208.924,195.243 205.287,197.345 203.049,196.053 206.686,193.951 		"/>
		<polygon style="fill:#FFFFFF;" points="214.594,191.966 210.957,194.068 208.719,192.776 212.356,190.674 		"/>
		<polygon style="fill:#FFFFFF;" points="189.259,212.514 181.827,216.81 179.589,215.518 187.022,211.222 		"/>
		<polygon style="fill:#FFFFFF;" points="194.691,209.374 191.53,211.201 189.293,209.909 192.454,208.083 		"/>
		<polygon style="fill:#FFFFFF;" points="204.077,203.949 196.962,208.062 194.725,206.77 201.84,202.658 		"/>
	</g>
	<polygon style="fill:#FFFFFF;" points="224.826,209.129 212.82,216.068 210.582,214.777 222.589,207.837 	"/>
	<polygon style="fill:#FFFFFF;" points="233.049,204.376 228.32,207.109 226.083,205.818 230.812,203.084 	"/>
</g>
<g>
	<polygon style="fill:#FFFFFF;" points="447.937,269.051 427.728,280.731 425.638,279.525 445.846,267.845 	"/>
	<polygon style="fill:#FFFFFF;" points="455.059,264.935 450.058,267.825 447.968,266.618 452.968,263.728 	"/>
	<polygon style="fill:#FFFFFF;" points="437.978,280.324 432.503,283.488 430.413,282.281 435.888,279.117 	"/>
	<polygon style="fill:#FFFFFF;" points="450.827,272.897 440.1,279.097 438.01,277.891 448.737,271.69 	"/>
	<polygon style="fill:#FFFFFF;" points="456.347,269.707 452.949,271.671 450.859,270.464 454.256,268.5 	"/>
	<polygon style="fill:#FFFFFF;" points="448.48,279.77 437.278,286.245 435.188,285.038 446.39,278.563 	"/>
	<polygon style="fill:#FFFFFF;" points="458.703,273.862 450.602,278.544 448.512,277.337 456.613,272.655 	"/>
	<polygon style="fill:#FFFFFF;" points="466.3,269.471 460.825,272.635 458.735,271.428 464.21,268.264 	"/>
	<polygon style="fill:#FFFFFF;" points="458.418,285.06 446.828,291.759 444.738,290.552 456.327,283.853 	"/>
	<polygon style="fill:#FFFFFF;" points="471.398,277.557 460.539,283.834 458.449,282.627 469.308,276.35 	"/>
	<polygon style="fill:#FFFFFF;" points="476.918,274.367 473.52,276.331 471.43,275.124 474.828,273.16 	"/>
	<polygon style="fill:#FFFFFF;" points="482.215,271.306 478.817,273.27 476.727,272.063 480.125,270.099 	"/>
	<polygon style="fill:#FFFFFF;" points="458.547,290.502 451.603,294.515 449.513,293.309 456.457,289.295 	"/>
	<polygon style="fill:#FFFFFF;" points="463.621,287.569 460.668,289.276 458.578,288.069 461.531,286.362 	"/>
	<polygon style="fill:#FFFFFF;" points="472.39,282.501 465.743,286.343 463.653,285.136 470.3,281.294 	"/>
</g>
<path style="fill:#FFFFFF;" d="M376.745,328.625c-0.086,0-0.173-0.022-0.25-0.067l-10.908-6.298
	c-0.239-0.138-0.321-0.443-0.183-0.683c0.138-0.238,0.444-0.321,0.683-0.183l10.658,6.153l55.797-32.213
	c0.238-0.14,0.545-0.058,0.683,0.183c0.139,0.239,0.057,0.545-0.183,0.683l-56.047,32.357
	C376.918,328.603,376.831,328.625,376.745,328.625z"/>
</svg>
